<svg width="152" height="69" viewBox="0 0 152 69" fill="none" xmlns="http://www.w3.org/2000/svg">
<path d="M51.374 21.2335L60.7721 16.2109L68.3213 12.1766L67.2707 10.2883L62.4315 1.59015L51.374 21.2335Z" fill="#686868"/>
<path d="M68.6634 32.94V14.0599L60.0753 18.6504L51 23.5005L60.0753 28.3496L68.6634 32.94Z" fill="#686868"/>
<path d="M76.3112 9.22863L71.2797 12.5116L87.2285 21.9561L88.1999 1.4722L76.3112 9.22863Z" fill="#686868"/>
<path d="M68.8838 9.49033L69.8686 11.2607L74.4478 8.27309L86.1075 0.665344H63.975L68.8838 9.49033Z" fill="#686868"/>
<path d="M74.4478 38.7279L69.8686 35.7393L68.8838 37.5097L63.975 46.3347H86.1075L74.4478 38.7279Z" fill="#686868"/>
<path d="M88.9885 22.5836H101L89.9212 2.90454L88.9885 22.5836Z" fill="#686868"/>
<path d="M101 24.4164H88.9885L89.9212 44.0954L101 24.4164Z" fill="#686868"/>
<path d="M67.2707 36.7117L68.3213 34.8234L60.7721 30.7891L51.374 25.7665L62.4315 45.4098L67.2707 36.7117Z" fill="#686868"/>
<path d="M71.2797 34.4883L76.3112 37.7713L88.1999 45.5277L87.2285 25.0438L71.2797 34.4883Z" fill="#686868"/>
<path d="M38.8927 56.9587C39.7727 56.9587 40.5447 57.1307 41.2087 57.4747C41.8807 57.8187 42.3967 58.3107 42.7567 58.9507C43.1247 59.5827 43.3087 60.3187 43.3087 61.1587C43.3087 61.9987 43.1247 62.7347 42.7567 63.3667C42.3967 63.9907 41.8807 64.4747 41.2087 64.8187C40.5447 65.1627 39.7727 65.3347 38.8927 65.3347H35.9647V56.9587H38.8927ZM38.8327 63.9067C39.7127 63.9067 40.3927 63.6667 40.8727 63.1867C41.3527 62.7067 41.5927 62.0307 41.5927 61.1587C41.5927 60.2867 41.3527 59.6067 40.8727 59.1187C40.3927 58.6227 39.7127 58.3747 38.8327 58.3747H37.6447V63.9067H38.8327ZM45.4183 57.8947C45.1223 57.8947 44.8743 57.8027 44.6743 57.6187C44.4823 57.4267 44.3863 57.1907 44.3863 56.9107C44.3863 56.6307 44.4823 56.3987 44.6743 56.2147C44.8743 56.0227 45.1223 55.9267 45.4183 55.9267C45.7143 55.9267 45.9583 56.0227 46.1503 56.2147C46.3503 56.3987 46.4503 56.6307 46.4503 56.9107C46.4503 57.1907 46.3503 57.4267 46.1503 57.6187C45.9583 57.8027 45.7143 57.8947 45.4183 57.8947ZM46.2463 58.6867V65.3347H44.5663V58.6867H46.2463ZM50.5101 58.5787C51.0061 58.5787 51.4421 58.6787 51.8181 58.8787C52.1941 59.0707 52.4901 59.3227 52.7061 59.6347V58.6867H54.3981V65.3827C54.3981 65.9987 54.2741 66.5467 54.0261 67.0267C53.7781 67.5147 53.4061 67.8987 52.9101 68.1787C52.4141 68.4667 51.8141 68.6107 51.1101 68.6107C50.1661 68.6107 49.3901 68.3907 48.7821 67.9507C48.1821 67.5107 47.8421 66.9107 47.7621 66.1507H49.4301C49.5181 66.4547 49.7061 66.6947 49.9941 66.8707C50.2901 67.0547 50.6461 67.1467 51.0621 67.1467C51.5501 67.1467 51.9461 66.9987 52.2501 66.7027C52.5541 66.4147 52.7061 65.9747 52.7061 65.3827V64.3507C52.4901 64.6627 52.1901 64.9227 51.8061 65.1307C51.4301 65.3387 50.9981 65.4427 50.5101 65.4427C49.9501 65.4427 49.4381 65.2987 48.9741 65.0107C48.5101 64.7227 48.1421 64.3187 47.8701 63.7987C47.6061 63.2707 47.4741 62.6667 47.4741 61.9867C47.4741 61.3147 47.6061 60.7187 47.8701 60.1987C48.1421 59.6787 48.5061 59.2787 48.9621 58.9987C49.4261 58.7187 49.9421 58.5787 50.5101 58.5787ZM52.7061 62.0107C52.7061 61.6027 52.6261 61.2547 52.4661 60.9667C52.3061 60.6707 52.0901 60.4467 51.8181 60.2947C51.5461 60.1347 51.2541 60.0547 50.9421 60.0547C50.6301 60.0547 50.3421 60.1307 50.0781 60.2827C49.8141 60.4347 49.5981 60.6587 49.4301 60.9547C49.2701 61.2427 49.1901 61.5867 49.1901 61.9867C49.1901 62.3867 49.2701 62.7387 49.4301 63.0427C49.5981 63.3387 49.8141 63.5667 50.0781 63.7267C50.3501 63.8867 50.6381 63.9667 50.9421 63.9667C51.2541 63.9667 51.5461 63.8907 51.8181 63.7387C52.0901 63.5787 52.3061 63.3547 52.4661 63.0667C52.6261 62.7707 52.7061 62.4187 52.7061 62.0107ZM56.8909 57.8947C56.5949 57.8947 56.3469 57.8027 56.1469 57.6187C55.9549 57.4267 55.8589 57.1907 55.8589 56.9107C55.8589 56.6307 55.9549 56.3987 56.1469 56.2147C56.3469 56.0227 56.5949 55.9267 56.8909 55.9267C57.1869 55.9267 57.4309 56.0227 57.6229 56.2147C57.8229 56.3987 57.9229 56.6307 57.9229 56.9107C57.9229 57.1907 57.8229 57.4267 57.6229 57.6187C57.4309 57.8027 57.1869 57.8947 56.8909 57.8947ZM57.7189 58.6867V65.3347H56.0389V58.6867H57.7189ZM61.3348 60.0667V63.2827C61.3348 63.5067 61.3868 63.6707 61.4908 63.7747C61.6028 63.8707 61.7868 63.9187 62.0428 63.9187H62.8228V65.3347H61.7668C60.3508 65.3347 59.6428 64.6467 59.6428 63.2707V60.0667H58.8508V58.6867H59.6428V57.0427H61.3348V58.6867H62.8228V60.0667H61.3348ZM63.5991 61.9867C63.5991 61.3147 63.7311 60.7187 63.9951 60.1987C64.2671 59.6787 64.6311 59.2787 65.0871 58.9987C65.5511 58.7187 66.0671 58.5787 66.6351 58.5787C67.1311 58.5787 67.5631 58.6787 67.9311 58.8787C68.3071 59.0787 68.6071 59.3307 68.8311 59.6347V58.6867H70.5231V65.3347H68.8311V64.3627C68.6151 64.6747 68.3151 64.9347 67.9311 65.1427C67.5551 65.3427 67.1191 65.4427 66.6231 65.4427C66.0631 65.4427 65.5511 65.2987 65.0871 65.0107C64.6311 64.7227 64.2671 64.3187 63.9951 63.7987C63.7311 63.2707 63.5991 62.6667 63.5991 61.9867ZM68.8311 62.0107C68.8311 61.6027 68.7511 61.2547 68.5911 60.9667C68.4311 60.6707 68.2151 60.4467 67.9431 60.2947C67.6711 60.1347 67.3791 60.0547 67.0671 60.0547C66.7551 60.0547 66.4671 60.1307 66.2031 60.2827C65.9391 60.4347 65.7231 60.6587 65.5551 60.9547C65.3951 61.2427 65.3151 61.5867 65.3151 61.9867C65.3151 62.3867 65.3951 62.7387 65.5551 63.0427C65.7231 63.3387 65.9391 63.5667 66.2031 63.7267C66.4751 63.8867 66.7631 63.9667 67.0671 63.9667C67.3791 63.9667 67.6711 63.8907 67.9431 63.7387C68.2151 63.5787 68.4311 63.3547 68.5911 63.0667C68.7511 62.7707 68.8311 62.4187 68.8311 62.0107ZM73.8439 56.4547V65.3347H72.1639V56.4547H73.8439ZM83.5352 56.9587V58.3147H80.0432V60.4627H82.7192V61.7947H80.0432V65.3347H78.3632V56.9587H83.5352ZM86.4064 59.7187C86.6224 59.3667 86.9024 59.0907 87.2464 58.8907C87.5984 58.6907 87.9984 58.5907 88.4464 58.5907V60.3547H88.0024C87.4744 60.3547 87.0744 60.4787 86.8024 60.7267C86.5384 60.9747 86.4064 61.4067 86.4064 62.0227V65.3347H84.7264V58.6867H86.4064V59.7187ZM89.146 61.9867C89.146 61.3147 89.278 60.7187 89.542 60.1987C89.814 59.6787 90.178 59.2787 90.634 58.9987C91.098 58.7187 91.614 58.5787 92.182 58.5787C92.678 58.5787 93.11 58.6787 93.478 58.8787C93.854 59.0787 94.154 59.3307 94.378 59.6347V58.6867H96.07V65.3347H94.378V64.3627C94.162 64.6747 93.862 64.9347 93.478 65.1427C93.102 65.3427 92.666 65.4427 92.17 65.4427C91.61 65.4427 91.098 65.2987 90.634 65.0107C90.178 64.7227 89.814 64.3187 89.542 63.7987C89.278 63.2707 89.146 62.6667 89.146 61.9867ZM94.378 62.0107C94.378 61.6027 94.298 61.2547 94.138 60.9667C93.978 60.6707 93.762 60.4467 93.49 60.2947C93.218 60.1347 92.926 60.0547 92.614 60.0547C92.302 60.0547 92.014 60.1307 91.75 60.2827C91.486 60.4347 91.27 60.6587 91.102 60.9547C90.942 61.2427 90.862 61.5867 90.862 61.9867C90.862 62.3867 90.942 62.7387 91.102 63.0427C91.27 63.3387 91.486 63.5667 91.75 63.7267C92.022 63.8867 92.31 63.9667 92.614 63.9667C92.926 63.9667 93.218 63.8907 93.49 63.7387C93.762 63.5787 93.978 63.3547 94.138 63.0667C94.298 62.7707 94.378 62.4187 94.378 62.0107ZM105.967 58.5907C106.783 58.5907 107.439 58.8427 107.935 59.3467C108.439 59.8427 108.691 60.5387 108.691 61.4347V65.3347H107.011V61.6627C107.011 61.1427 106.879 60.7467 106.615 60.4747C106.351 60.1947 105.991 60.0547 105.535 60.0547C105.079 60.0547 104.715 60.1947 104.443 60.4747C104.179 60.7467 104.047 61.1427 104.047 61.6627V65.3347H102.367V61.6627C102.367 61.1427 102.235 60.7467 101.971 60.4747C101.707 60.1947 101.347 60.0547 100.891 60.0547C100.427 60.0547 100.059 60.1947 99.7868 60.4747C99.5228 60.7467 99.3908 61.1427 99.3908 61.6627V65.3347H97.7108V58.6867H99.3908V59.4907C99.6068 59.2107 99.8828 58.9907 100.219 58.8307C100.563 58.6707 100.939 58.5907 101.347 58.5907C101.867 58.5907 102.331 58.7027 102.739 58.9267C103.147 59.1427 103.463 59.4547 103.687 59.8627C103.903 59.4787 104.215 59.1707 104.623 58.9387C105.039 58.7067 105.487 58.5907 105.967 58.5907ZM116.465 61.8667C116.465 62.1067 116.449 62.3227 116.417 62.5147H111.557C111.597 62.9947 111.765 63.3707 112.061 63.6427C112.357 63.9147 112.721 64.0507 113.153 64.0507C113.777 64.0507 114.221 63.7827 114.485 63.2467H116.297C116.105 63.8867 115.737 64.4147 115.193 64.8307C114.649 65.2387 113.981 65.4427 113.189 65.4427C112.549 65.4427 111.973 65.3027 111.461 65.0227C110.957 64.7347 110.561 64.3307 110.273 63.8107C109.993 63.2907 109.853 62.6907 109.853 62.0107C109.853 61.3227 109.993 60.7187 110.273 60.1987C110.553 59.6787 110.945 59.2787 111.449 58.9987C111.953 58.7187 112.533 58.5787 113.189 58.5787C113.821 58.5787 114.385 58.7147 114.881 58.9867C115.385 59.2587 115.773 59.6467 116.045 60.1507C116.325 60.6467 116.465 61.2187 116.465 61.8667ZM114.725 61.3867C114.717 60.9547 114.561 60.6107 114.257 60.3547C113.953 60.0907 113.581 59.9587 113.141 59.9587C112.725 59.9587 112.373 60.0867 112.085 60.3427C111.805 60.5907 111.633 60.9387 111.569 61.3867H114.725Z" fill="#686868"/>
</svg>
